<svg xmlns="http://www.w3.org/2000/svg" viewBox="0 0 48 48" width="48px" height="48px">
  <defs>
    <linearGradient id="palGrad" x1="0%" y1="0%" x2="100%" y2="100%">
      <stop offset="0%" stop-color="#fff5eb"/>
      <stop offset="100%" stop-color="#f0d5be"/>
    </linearGradient>
  </defs>
  <!-- Palette Shape -->
  <path d="M 22 6 C 11 6 5 15 5 24 C 5 35 14 42 24 42 C 28 42 30 39 30 36 C 30 33 32 32 34 32 C 38 32 43 27 43 21 C 43 12 34 6 22 6 Z" fill="url(#palGrad)" stroke="#cbb29b" stroke-width="1.5"/>
  <!-- Thumb Hole -->
  <circle cx="34" cy="34" r="3.5" fill="#424242" opacity="0.3"/>
  <!-- Paint Dabs -->
  <circle cx="12" cy="18" r="3.5" fill="#f44336"/>
  <circle cx="18" cy="12" r="3.5" fill="#ff9800"/>
  <circle cx="26" cy="11" r="3.5" fill="#ffeb3b"/>
  <circle cx="34" cy="14" r="3.5" fill="#4caf50"/>
  <circle cx="38" cy="22" r="3.5" fill="#2196f3"/>
  <circle cx="12" cy="27" r="3.5" fill="#9c27b0"/>
</svg>
