<?xml version="1.0" encoding="UTF-8" standalone="no"?>
<!-- Created with Inkscape (http://www.inkscape.org/) -->

<svg
   width="32"
   height="32"
   viewBox="0 0 32 32"
   version="1.1"
   id="svg5"
   inkscape:version="1.2.2 (b0a8486541, 2022-12-01)"
   sodipodi:docname="weather-none-available.svg"
   xmlns:inkscape="http://www.inkscape.org/namespaces/inkscape"
   xmlns:sodipodi="http://sodipodi.sourceforge.net/DTD/sodipodi-0.dtd"
   xmlns:xlink="http://www.w3.org/1999/xlink"
   xmlns="http://www.w3.org/2000/svg"
   xmlns:svg="http://www.w3.org/2000/svg">
  <sodipodi:namedview
     id="namedview7"
     pagecolor="#ffffff"
     bordercolor="#666666"
     borderopacity="1.0"
     inkscape:pageshadow="2"
     inkscape:pageopacity="0.0"
     inkscape:pagecheckerboard="0"
     inkscape:document-units="px"
     showgrid="false"
     units="px"
     height="48px"
     inkscape:zoom="8.905126"
     inkscape:cx="-5.8393334"
     inkscape:cy="-3.4249936"
     inkscape:window-width="1920"
     inkscape:window-height="1009"
     inkscape:window-x="0"
     inkscape:window-y="0"
     inkscape:window-maximized="1"
     inkscape:current-layer="svg5"
     inkscape:lockguides="true"
     inkscape:showpageshadow="2"
     inkscape:deskcolor="#d1d1d1" />
  <defs
     id="defs2">
    <linearGradient
       inkscape:collect="always"
       xlink:href="#linearGradient1964"
       id="linearGradient5809"
       x1="54.999989"
       y1="56.000126"
       x2="24.583982"
       y2="41.015621"
       gradientUnits="userSpaceOnUse"
       gradientTransform="matrix(0.50000004,0,0,0.50000004,5.8033502e-6,-0.50000058)" />
    <linearGradient
       inkscape:collect="always"
       id="linearGradient1964">
      <stop
         style="stop-color:#ebf6ff;stop-opacity:1"
         offset="0.46016201"
         id="stop1956" />
      <stop
         style="stop-color:#bdd8f0;stop-opacity:1"
         offset="1"
         id="stop1962" />
    </linearGradient>
    <linearGradient
       inkscape:collect="always"
       xlink:href="#linearGradient1468"
       id="linearGradient1368"
       x1="16"
       y1="31"
       x2="60"
       y2="59"
       gradientUnits="userSpaceOnUse"
       gradientTransform="matrix(0.50000004,0,0,0.50000004,-8.4664982e-7,-0.50000058)" />
    <linearGradient
       inkscape:collect="always"
       id="linearGradient1468">
      <stop
         style="stop-color:#d6eeff;stop-opacity:1"
         offset="0"
         id="stop1464" />
      <stop
         style="stop-color:#ebf6ff;stop-opacity:1"
         offset="0.46016201"
         id="stop4677" />
      <stop
         style="stop-color:#e4f1f5;stop-opacity:1"
         offset="0.59705883"
         id="stop4225" />
      <stop
         style="stop-color:#d9e8f1;stop-opacity:1;"
         offset="0.73483342"
         id="stop4611" />
      <stop
         style="stop-color:#bdd8f0;stop-opacity:1"
         offset="1"
         id="stop1466" />
    </linearGradient>
    <linearGradient
       inkscape:collect="always"
       xlink:href="#linearGradient1014"
       id="linearGradient1016"
       x1="8.2941866"
       y1="3.8481452"
       x2="2.7586253"
       y2="13.594231"
       gradientUnits="userSpaceOnUse"
       gradientTransform="matrix(-1.5639425,0,0,1.5639425,29.241379,2.7586204)" />
    <linearGradient
       inkscape:collect="always"
       id="linearGradient1014">
      <stop
         style="stop-color:#ffde4a;stop-opacity:1"
         offset="0"
         id="stop1010" />
      <stop
         style="stop-color:#feb315;stop-opacity:1"
         offset="1"
         id="stop1012" />
    </linearGradient>
  </defs>
  <path
     id="path850"
     style="fill:url(#linearGradient1016);fill-opacity:1;stroke-width:4.67872;stroke-linecap:round;stroke-linejoin:round;stroke-dasharray:56.1445, 4.67872"
     d="m 20.388771,4.1708954 a 11.999999,11.999999 0 0 1 7.22309,10.9991316 11.999999,11.999999 0 0 1 -12,12 11.999999,11.999999 0 0 1 -10.9991321,-7.22309 11.999999,11.999999 0 0 0 4.7769096,1.000868 11.999999,11.999999 0 0 0 12.0000005,-11.9999996 11.999999,11.999999 0 0 0 -1.000868,-4.77691 z" />
  <path
     id="path852"
     style="fill:url(#linearGradient1368);fill-opacity:1;stroke-width:0.466666"
     d="m 16.112296,14.170027 c -3.097758,0.0011 -5.826394,2.038157 -6.7080093,5.007812 -2.400674,0.11108 -4.2903892,2.088945 -4.2919925,4.492188 0,2.485281 2.0147185,4.5 4.5000005,4.5 H 22.112295 c 2.77,0 5.000001,-2.229999 5.000001,-5 0,-2.659 -2.055073,-4.820302 -4.669922,-4.989258 -1.156513,-2.44887 -3.621853,-4.010912 -6.330078,-4.010742 z"
     sodipodi:nodetypes="cccccscc" />
  <path
     id="path2276"
     style="fill:url(#linearGradient5809);fill-opacity:1;stroke-width:0.499998"
     d="m 15.862302,16.670027 c -2.375622,0.0013 -4.422289,1.674138 -4.896486,4.001953 -0.03451,-0.0012 -0.069,-0.0019 -0.103521,-0.0019 -1.6568546,0 -3.0000006,1.343146 -3.0000006,3 0,1.656854 1.343146,3 3.0000006,3 h 10.000002 c 1.938999,0 3.499999,-1.561 3.499999,-3.5 0,-1.938999 -1.561,-3.499999 -3.499999,-3.499999 h -0.416992 c -0.795307,-1.822279 -2.594741,-3.000172 -4.583008,-3 z"
     sodipodi:nodetypes="cccsccsscc" />
</svg>
